<svg width="78" height="77" viewBox="0 0 78 77" fill="none" xmlns="http://www.w3.org/2000/svg">
<mask id="mask0_9_649" style="mask-type:alpha" maskUnits="userSpaceOnUse" x="0" y="0" width="78" height="77">
<rect x="0.36084" y="0.253906" width="76.6645" height="76.6645" fill="url(#paint0_linear_9_649)"/>
</mask>
<g mask="url(#mask0_9_649)">
<rect x="0.36084" y="0.253906" width="76.6645" height="76.6645" fill="url(#paint1_linear_9_649)"/>
<path fill-rule="evenodd" clip-rule="evenodd" d="M36.3893 13.3932V14.8202C36.3893 16.1881 36.3992 16.257 36.6255 16.5227C36.8027 16.7196 36.9601 16.7885 37.2062 16.7885C37.4424 16.7885 37.6392 16.7097 37.8065 16.5424C38.0624 16.2964 38.0722 16.2866 38.0624 13.3932H39.8338V14.8497C39.8239 16.2866 39.8338 16.2964 40.0897 16.5424C40.257 16.7097 40.4538 16.7885 40.69 16.7885C40.936 16.7885 41.0935 16.7196 41.2706 16.5129C41.497 16.257 41.5068 16.1881 41.5068 13.3932H43.1798V14.6726C43.1798 15.5091 43.229 16.0602 43.3078 16.2767C43.3865 16.4539 43.5636 16.6507 43.7309 16.7294C43.977 16.8377 44.0655 16.8377 44.3509 16.7294C44.5281 16.6507 44.7446 16.4735 44.8135 16.3161C44.9119 16.1291 44.9513 15.6469 44.9513 13.3932H46.6243V14.7415C46.6243 15.637 46.6735 16.1881 46.7522 16.3456C46.8211 16.4834 47.0081 16.6507 47.1656 16.7294C47.3329 16.7983 47.5592 16.8278 47.6871 16.7983C47.8052 16.7688 47.9922 16.6408 48.1005 16.5129C48.2875 16.3161 48.2973 16.1685 48.2973 13.3932H50.0687V14.8202C50.0687 16.1881 50.0786 16.257 50.3049 16.5129C50.4821 16.7196 50.6297 16.7885 50.9052 16.7885C51.1808 16.7885 51.3284 16.7196 51.5056 16.5129C51.7319 16.257 51.7418 16.1881 51.7418 13.3932H53.5132V14.8399C53.5132 16.1685 53.523 16.3161 53.71 16.5129C53.8183 16.6408 54.0052 16.7688 54.1332 16.7983C54.2513 16.8278 54.4776 16.7983 54.6449 16.7294C54.8024 16.6507 54.9894 16.4834 55.0583 16.3456C55.137 16.1881 55.1862 15.637 55.1862 13.3932H56.8592V14.7218C56.8592 15.6469 56.8986 16.1291 56.997 16.3161C57.0659 16.4735 57.2824 16.6507 57.4595 16.7294C57.7449 16.8377 57.8335 16.8377 58.0795 16.7294C58.2468 16.6507 58.424 16.4539 58.5027 16.2669C58.5814 16.0602 58.6307 15.5091 58.6307 13.3932H59.6443C60.5989 13.3834 60.658 13.4031 61.1402 13.905V19.672L60.6481 20.1935L34.3227 20.1837L33.8306 19.6916L33.8109 14.0034L34.0766 13.6983C34.3424 13.3932 34.3424 13.3932 36.3893 13.3932ZM16.4607 14.2888C16.7888 14.2888 17.0774 14.3609 17.3268 14.5053C17.5334 14.6234 17.7893 14.8497 17.8877 15.017C17.9861 15.1745 18.0944 15.4697 18.1337 15.6567C18.1928 15.9126 18.1337 16.2078 17.9369 16.7885C17.7991 17.2215 17.6515 17.8612 17.622 18.2155C17.5925 18.5894 17.6122 19.0815 17.6909 19.3964C17.7598 19.6916 17.9468 20.2231 18.1239 20.5675C18.3109 20.9513 18.6357 21.3843 18.9703 21.6993C19.2655 21.9847 19.8461 22.4078 20.2496 22.644C20.6531 22.8901 21.2338 23.2837 21.529 23.5297C21.8242 23.7758 22.2769 24.2482 22.523 24.5631C22.769 24.8878 23.1134 25.3996 23.2807 25.6948C23.448 25.9901 23.6842 26.5018 23.7925 26.8266C23.9106 27.1513 24.068 27.7418 24.1468 28.1256C24.2255 28.5193 24.2846 29.1393 24.2846 29.5034C24.2747 29.8774 24.2157 30.5072 24.1468 30.9107C24.068 31.3142 23.8417 32.072 23.635 32.5837C23.2709 33.4891 23.2611 33.558 23.2512 34.7094C23.2512 35.8707 23.2512 35.9002 23.6153 36.6285C23.8122 37.0222 24.1665 37.5536 24.4026 37.7996C24.6487 38.0456 25.2785 38.518 25.8198 38.8428C26.3807 39.1971 27.0795 39.7383 27.4633 40.1222C27.8373 40.4961 28.3293 41.1063 28.5655 41.4901C28.8115 41.8739 29.1363 42.5333 29.2938 42.9663C29.4512 43.3993 29.6382 44.1276 29.6973 44.5901C29.776 45.0723 29.7957 45.7612 29.7662 46.2139C29.7268 46.6469 29.6382 47.2669 29.5496 47.5917C29.4709 47.9165 29.3036 48.4184 29.1757 48.7136C29.0576 49.0187 28.8017 49.3927 28.595 49.5796C28.349 49.7961 28.0833 49.9241 27.8077 49.9634C27.5519 50.0028 27.2271 49.9733 26.9909 49.8946C26.7744 49.8257 26.4595 49.6288 26.302 49.4615C26.1249 49.2942 25.9477 48.9695 25.8788 48.6939C25.7706 48.2707 25.7804 48.1625 26.0166 47.4638C26.1544 47.0504 26.2922 46.4009 26.3217 46.0171C26.3512 45.6333 26.3217 45.092 26.2627 44.8066C26.2036 44.5311 26.0363 44.039 25.8887 43.7241C25.7312 43.3895 25.3868 42.9269 25.0325 42.5726C24.6979 42.2479 24.0779 41.7755 23.6449 41.5196C23.2119 41.2736 22.6214 40.8504 22.3261 40.5847C22.0309 40.3288 21.5684 39.8269 21.3026 39.4726C21.0369 39.1183 20.6728 38.5279 20.4957 38.1441C20.3087 37.7701 20.0626 37.1009 19.9445 36.6679C19.7969 36.0971 19.7379 35.5755 19.728 34.7488C19.728 33.9615 19.7772 33.4104 19.9052 32.9282C20.0036 32.5542 20.2103 31.9244 20.3677 31.5504C20.5252 31.1764 20.7023 30.5466 20.7614 30.1726C20.8499 29.6412 20.8499 29.3263 20.7614 28.8145C20.6925 28.4504 20.5252 27.8993 20.3776 27.5942C20.2201 27.2891 19.8855 26.7971 19.6099 26.5018C19.3344 26.2066 18.7439 25.744 18.2814 25.4685C17.8188 25.1831 17.189 24.7501 16.8741 24.4942C16.569 24.2285 16.0868 23.7266 15.8112 23.3526C15.5356 22.9885 15.1617 22.3783 14.9845 22.0043C14.7976 21.6304 14.5614 20.9809 14.4531 20.5774C14.335 20.1739 14.2169 19.485 14.1874 19.052C14.148 18.5894 14.1775 17.9399 14.2464 17.4774C14.3153 17.0443 14.4728 16.3751 14.6007 16.0012C14.7287 15.6174 14.9452 15.1548 15.0829 14.958C15.2207 14.771 15.4766 14.5348 15.6439 14.4462C15.821 14.3577 16.195 14.2888 16.4607 14.2888ZM15.8998 41.5393C16.0671 41.5393 16.3623 41.5984 16.5395 41.6672C16.7068 41.746 17.002 41.9625 17.1791 42.1593C17.3563 42.3758 17.5236 42.6809 17.5531 42.8974C17.5826 43.0942 17.7106 43.4387 17.8385 43.6552C17.9566 43.8717 18.2322 44.1669 18.4388 44.3145C18.6553 44.4622 19.0195 44.6688 19.2655 44.7771C19.5115 44.8853 20.0823 45.0428 20.5449 45.1314C21.0271 45.2199 21.5192 45.3774 21.6963 45.5053C21.8734 45.6234 22.0998 45.8793 22.208 46.0663C22.3163 46.2631 22.4049 46.5977 22.4147 46.8339C22.4147 47.0603 22.3557 47.3949 22.2868 47.572C22.208 47.7393 22.0014 48.0247 21.8144 48.192C21.6274 48.3593 21.3125 48.5266 21.0861 48.566C20.8401 48.6152 20.3776 48.5857 19.856 48.4873C19.3934 48.3987 18.7734 48.2511 18.4782 48.1526C18.183 48.0444 17.6712 47.8279 17.3464 47.6704C17.0217 47.5031 16.5198 47.1882 16.2442 46.9619C15.9588 46.7453 15.516 46.2828 15.2699 45.9482C15.0141 45.6038 14.709 45.1117 14.5909 44.8361C14.4728 44.5704 14.3153 44.098 14.2563 43.8028C14.1677 43.419 14.1677 43.1434 14.2366 42.8679C14.2858 42.6514 14.4137 42.3463 14.522 42.1888C14.6204 42.0314 14.896 41.8247 15.142 41.7263C15.3782 41.6279 15.7226 41.5393 15.8998 41.5393ZM62.8329 41.5393C62.8526 41.5393 63.0199 41.6082 63.2069 41.6869C63.4627 41.7952 63.5808 41.9231 63.6497 42.179C63.7186 42.4349 63.7186 42.5923 63.6103 42.799C63.5415 42.9466 63.3249 43.1238 63.1478 43.2025C62.8624 43.3107 62.7738 43.3107 62.5278 43.2025C62.3703 43.1238 62.1735 42.9269 62.0948 42.7695C61.9669 42.5136 61.9669 42.425 62.0849 42.1396C62.1735 41.933 62.331 41.7558 62.518 41.6771C62.6853 41.6082 62.823 41.5491 62.8427 41.5393H62.8329ZM14.1382 52.66H17.9074C21.6176 52.66 21.6766 52.66 22.1096 52.8765C22.4147 53.0339 22.6411 53.2504 22.8477 53.585C23.015 53.8508 23.3693 54.3133 23.635 54.6085C23.9106 54.9038 24.3731 55.3073 24.6684 55.5139C24.9636 55.7108 25.5246 56.0355 25.8985 56.2225C26.2823 56.4193 27.0303 56.7343 27.5715 56.9212C28.1128 57.1181 28.9788 57.3838 29.4906 57.5216C30.0023 57.6593 30.8881 57.8562 31.4589 57.9644C32.0296 58.0727 33.0039 58.2301 33.6239 58.3089C34.2439 58.3974 35.3954 58.5057 36.1827 58.5647C36.97 58.6139 38.21 58.6631 38.9382 58.6631C39.6665 58.6631 40.9065 58.6139 41.6938 58.5647C42.4811 58.5057 43.6522 58.3974 44.3017 58.3089C44.9513 58.2301 45.837 58.0924 46.27 58.0136C46.703 57.9349 47.6379 57.7184 48.3367 57.5314C49.0452 57.3543 50.0195 57.0492 50.5017 56.8622C50.9938 56.6752 51.6729 56.38 52.0271 56.2028C52.3814 56.0257 52.9129 55.7108 53.2081 55.5139C53.5033 55.3073 53.9757 54.9038 54.2414 54.6085C54.517 54.3133 54.8713 53.8508 55.0287 53.585C55.2354 53.2504 55.4618 53.0339 55.7668 52.8765C56.1999 52.66 56.2589 52.66 63.7383 52.66V63.7806H14.1382V52.66ZM16.756 60.2181C16.7264 60.3362 16.7658 60.5724 16.8445 60.7298C16.9233 60.8873 17.0807 61.0743 17.189 61.1235C17.2972 61.1825 17.6515 61.2219 17.9763 61.2219C18.301 61.2219 18.6849 61.1628 18.8423 61.0841C18.9899 61.0152 19.1376 60.8774 19.1868 60.7889C19.2261 60.7003 19.2557 60.4936 19.2557 60.3362C19.2557 60.1492 19.1671 59.9524 19.0096 59.7949C18.7931 59.5784 18.6849 59.5489 17.996 59.5489C17.3169 59.5489 17.1988 59.5784 17.0217 59.7752C16.9134 59.8933 16.7953 60.0901 16.756 60.2181ZM21.2731 59.7949C21.1157 59.9425 21.0369 60.1492 21.0369 60.3558C21.0369 60.533 21.0861 60.7495 21.155 60.8381C21.2239 60.9266 21.3715 61.0447 21.4995 61.1038C21.6471 61.1924 22.6804 61.2219 24.9242 61.2219H28.1325C28.5754 60.7692 28.7033 60.5428 28.7033 60.4346C28.7033 60.3263 28.6442 60.1197 28.5655 59.972C28.4966 59.8146 28.3588 59.667 28.2703 59.6276C28.1817 59.5784 26.6268 59.5489 24.816 59.5489H21.5093L21.2731 59.7949ZM38.6528 21.9551H56.3573L56.6033 22.2012C56.8395 22.4472 56.8494 22.4866 56.8494 25.3012L51.5941 25.3307C46.4963 25.3504 46.3389 25.3602 46.1224 25.5472C46.0043 25.6555 45.8665 25.8523 45.8173 25.9704C45.7681 26.1082 45.7681 26.305 45.8271 26.4821C45.8862 26.6494 46.024 26.8364 46.1519 26.9053C46.3094 26.9939 47.6281 27.0431 56.3376 27.1218L53.7002 31.6488C52.2437 34.1387 50.9741 36.2348 50.8757 36.3037C50.7379 36.4022 49.9211 36.4317 47.4805 36.4317C44.2722 36.4218 44.2525 36.4218 44.0163 36.2053C43.8884 36.0872 42.6189 34.0009 41.2116 31.5799C39.7944 29.159 38.643 27.1513 38.643 27.1218C38.643 27.1021 39.509 27.0726 40.562 27.0726C41.8316 27.0726 42.5598 27.0332 42.7074 26.9644C42.8255 26.8955 42.983 26.7774 43.0421 26.6888C43.1109 26.6101 43.17 26.3837 43.17 26.1869C43.17 25.9409 43.1011 25.7736 42.6681 25.3504L38.0525 25.3012L38.1017 22.4374L38.6528 21.9551ZM32.9547 27.9583C33.2204 27.9583 33.5452 28.0174 33.6928 28.0961C33.8503 28.165 34.0668 28.3323 34.1849 28.4602C34.303 28.5882 34.49 28.8932 34.5982 29.1393C34.7065 29.3755 34.8935 29.9758 35.0116 30.4679C35.1592 31.078 35.2281 31.6587 35.2281 32.3377C35.2281 32.9479 35.169 33.5482 35.0706 33.932C34.9722 34.2764 34.7754 34.8079 34.6179 35.1129C34.4604 35.4279 34.1554 35.9002 33.929 36.1758C33.7027 36.4415 33.3287 36.786 33.1023 36.9434C32.7382 37.1895 32.6103 37.219 32.0985 37.1895C31.6655 37.1599 31.4195 37.091 31.1735 36.9041C30.9865 36.7761 30.7503 36.4907 30.6519 36.2742C30.5535 36.0577 30.4747 35.7329 30.4747 35.5558C30.4747 35.3787 30.5338 35.0933 30.6027 34.9161C30.6814 34.739 30.9274 34.3945 31.1538 34.1583C31.3703 33.9123 31.6163 33.558 31.6852 33.371C31.7443 33.1742 31.7935 32.6723 31.7935 32.2393C31.7836 31.6783 31.7049 31.2158 31.5179 30.6647C31.3801 30.2317 31.262 29.7298 31.262 29.5526C31.262 29.3755 31.3506 29.0606 31.4589 28.844C31.5671 28.6275 31.7738 28.3717 31.9214 28.2732C32.0789 28.1748 32.2658 28.0666 32.3446 28.0371C32.4233 27.9977 32.6989 27.9682 32.9547 27.9583ZM44.9414 38.1933H50.0589V39.0298C50.0589 39.7088 50.0294 39.8663 49.9113 39.8663C49.8325 39.8663 48.7008 40.5749 47.4017 41.4409C46.1027 42.3069 45.0201 43.0155 44.9906 43.0155C44.9611 43.0155 44.9414 41.9231 44.9414 40.6044V38.1933ZM37.9935 40.6536C38.1017 40.6536 38.2985 40.7126 38.4166 40.7717C38.5347 40.8406 39.4697 41.933 40.4833 43.2123C41.9792 45.092 42.3236 45.5841 42.3236 45.8301C42.3335 46.0368 42.2449 46.2336 42.0874 46.4009C41.9103 46.5879 41.743 46.6568 41.497 46.6568C41.2313 46.6568 41.0738 46.578 40.8474 46.332C40.6801 46.1549 39.8338 45.1314 38.9678 44.0488C38.1017 42.9663 37.3439 41.9822 37.2849 41.8542C37.216 41.7361 37.1865 41.4999 37.216 41.3425C37.2455 41.1752 37.3833 40.9587 37.5211 40.8504C37.6687 40.7422 37.8754 40.6536 37.9935 40.6536ZM56.9183 40.752C57.1151 40.752 57.3218 40.8209 57.4399 40.9488C57.5481 41.0571 57.6662 41.2637 57.6957 41.4114C57.7253 41.559 57.7154 41.7755 57.6564 41.8838C57.6072 41.992 56.8002 43.0253 55.8751 44.1965C54.9402 45.3577 54.084 46.3911 53.9659 46.4895C53.8478 46.578 53.6018 46.6568 53.4246 46.6568C53.2179 46.6568 53.0211 46.5682 52.8637 46.4107C52.7259 46.273 52.6176 46.0466 52.6176 45.9187C52.6176 45.7809 52.6668 45.5742 52.7357 45.4463C52.7948 45.3282 53.6313 44.2457 54.5957 43.045C55.5503 41.8444 56.3967 40.8406 56.4754 40.811C56.5443 40.7914 56.751 40.7618 56.9183 40.752ZM32.2462 41.5885C32.3839 41.618 32.5906 41.7558 32.7087 41.8838C32.8465 42.0314 32.935 42.2577 32.935 42.4447C32.935 42.6612 32.8563 42.8482 32.6792 43.0155C32.5119 43.1828 32.315 43.2615 32.0789 43.2615C31.823 43.2615 31.6754 43.1828 31.4982 42.986C31.3703 42.8384 31.262 42.5923 31.262 42.4447C31.262 42.2971 31.3309 42.0707 31.4195 41.9428C31.5081 41.8247 31.6754 41.6771 31.7836 41.6279C31.9017 41.5885 32.1084 41.5688 32.2462 41.5885ZM49.9802 41.8345C50.0294 41.8345 50.0589 42.3365 50.0589 42.9663C50.0589 44.0488 50.049 44.098 49.8325 44.1571C49.7144 44.1965 48.6221 44.8952 47.4017 45.712C46.1814 46.5387 45.1284 47.2374 45.0595 47.2768C44.9709 47.326 44.9414 47.08 44.9414 46.1647C44.9414 45.279 44.9709 44.9838 45.0595 44.9838C45.1284 44.9838 46.2503 44.2752 47.5494 43.4092C48.8484 42.5431 49.9408 41.8345 49.9802 41.8345ZM34.8049 44.1571C34.9624 44.1866 36.3795 45.5349 38.6922 47.8377C42.1268 51.2723 42.3335 51.4987 42.3335 51.8333C42.3335 52.0892 42.2646 52.2466 42.0579 52.4238C41.8906 52.5714 41.6741 52.66 41.4674 52.66C41.182 52.66 40.7982 52.3057 37.4817 48.9892C34.303 45.8006 33.8208 45.2888 33.8208 45.033C33.8208 44.8657 33.8897 44.6295 33.9782 44.5015C34.0668 44.3834 34.2341 44.2358 34.3424 44.1866C34.4604 44.1472 34.6671 44.1276 34.8049 44.1571ZM60.2643 44.098C60.284 44.098 60.4415 44.1571 60.6088 44.226C60.8154 44.3047 60.9729 44.4622 61.0516 44.6688C61.1599 44.9247 61.15 45.0428 61.0418 45.2987C60.963 45.4857 59.3884 47.1292 57.371 49.1368C53.9954 52.5025 53.8281 52.6501 53.4738 52.66C53.2179 52.66 53.0408 52.5911 52.8637 52.4139C52.6865 52.2368 52.6176 52.0596 52.6176 51.7939C52.6176 51.4396 52.7652 51.2723 56.131 47.8968C58.0697 45.958 59.7821 44.3047 59.9494 44.2358C60.1068 44.1669 60.2545 44.098 60.2643 44.098ZM49.99 46.1352C50.0392 46.1549 50.0687 46.6765 50.0687 47.2965C50.0589 48.3003 50.0392 48.4282 49.8817 48.4282C49.7932 48.4282 48.6614 49.1368 47.3722 50.0028C46.0929 50.8688 45.0201 51.5774 44.9906 51.5774C44.9611 51.5774 44.9414 51.046 44.9414 50.3965C44.9414 49.245 44.9513 49.2155 45.1579 49.1663C45.2859 49.1368 46.3979 48.438 47.6379 47.6015C48.8779 46.7749 49.9408 46.1057 49.99 46.1352ZM49.931 50.3965C50.0294 50.3965 50.0589 50.7704 50.0687 53.4965L47.4509 55.2285L46.2306 54.4117C45.2268 53.7327 45.0398 53.5752 45.1776 53.4965C45.276 53.4374 46.3487 52.719 47.5789 51.9022C48.809 51.0755 49.8719 50.4063 49.931 50.3965Z" fill="black"/>
</g>
<defs>
<linearGradient id="paint0_linear_9_649" x1="0.36084" y1="76.9184" x2="82.2834" y2="11.0862" gradientUnits="userSpaceOnUse">
<stop stop-color="#EDEDED"/>
<stop offset="1" stop-color="#F9F9F9"/>
</linearGradient>
<linearGradient id="paint1_linear_9_649" x1="0.36084" y1="76.9184" x2="82.2834" y2="11.0862" gradientUnits="userSpaceOnUse">
<stop stop-color="#EDEDED"/>
<stop offset="1" stop-color="#F9F9F9"/>
</linearGradient>
</defs>
</svg>
