<svg width="78" height="78" viewBox="0 0 78 78" fill="none" xmlns="http://www.w3.org/2000/svg">
<mask id="mask0_9_661" style="mask-type:alpha" maskUnits="userSpaceOnUse" x="0" y="0" width="78" height="78">
<rect x="0.36084" y="0.918457" width="76.6645" height="76.6645" fill="url(#paint0_linear_9_661)"/>
</mask>
<g mask="url(#mask0_9_661)">
<rect x="0.36084" y="0.918457" width="76.6645" height="76.6645" fill="url(#paint1_linear_9_661)"/>
<path d="M32.7454 15.7993C32.9271 15.675 33.3384 15.4646 33.654 15.3307C34.0844 15.1585 34.4 15.0916 34.9452 15.0916C35.4329 15.0916 35.8251 15.1489 36.1598 15.2828C36.4372 15.388 36.8293 15.5793 37.0206 15.7037C37.2214 15.828 41.2766 19.2902 46.0396 23.4028C51.8928 28.4622 54.829 31.0541 55.1064 31.4271C55.355 31.7523 55.5941 32.2209 55.7089 32.5939C55.8141 32.9383 55.8906 33.4069 55.8906 33.646C55.8906 33.8851 55.8237 34.3346 55.7472 34.6502C55.6611 34.9659 55.4889 35.3962 55.3646 35.6066C55.2403 35.8171 54.2647 36.9935 53.1935 38.2272C51.9215 39.7001 51.0894 40.58 50.7738 40.7809C50.5156 40.953 50.0374 41.1634 49.7218 41.2591C49.3296 41.3643 48.9184 41.4025 48.4306 41.3738C47.8759 41.3451 47.5794 41.2686 47.0916 41.0391C46.5943 40.7904 44.6719 39.1836 37.7666 33.2156C32.9749 29.0839 28.9197 25.5452 28.7476 25.3443C28.5659 25.153 28.3268 24.7992 28.2024 24.5601C28.0877 24.321 27.9346 23.8906 27.8677 23.6036C27.8007 23.2976 27.772 22.8385 27.8007 22.5038C27.8294 22.1882 27.9251 21.7386 28.0207 21.4995C28.1164 21.2604 28.2885 20.9161 28.4128 20.7344C28.5372 20.5527 29.484 19.4145 30.5265 18.219C31.5594 17.0139 32.5637 15.9332 32.7454 15.7993Z" fill="black"/>
<path d="M53.1935 40.5704C53.337 40.4079 54.0065 39.6236 54.6856 38.8298C55.9098 37.4143 55.9289 37.3951 56.1202 37.5577C56.2349 37.6534 57.44 38.6959 58.8077 39.8818C60.1754 41.0678 61.4474 42.1963 61.6291 42.4068C61.8204 42.6076 62.0595 42.9328 62.1743 43.1145C62.2891 43.2962 62.4708 43.7075 62.5855 44.0231C62.6907 44.3387 62.8055 44.9221 62.8342 45.3143C62.8725 45.8116 62.8438 46.2324 62.729 46.7011C62.6429 47.0741 62.4516 47.6097 62.2891 47.8966C62.136 48.1835 61.2657 49.2834 60.3571 50.3354C59.4485 51.3875 58.5112 52.4109 58.2721 52.6117C58.0426 52.8221 57.6504 53.0899 57.3922 53.2142C57.1435 53.3386 56.694 53.5107 56.3975 53.5872C56.0915 53.6638 55.5463 53.7307 55.1733 53.7307C54.8003 53.7307 54.2934 53.6733 54.0256 53.5968C53.7674 53.5299 49.3296 51.7701 44.1746 49.6851C39.0195 47.6001 34.7252 45.8785 34.6295 45.8499C34.5052 45.802 34.1035 46.2133 32.9558 47.5236C32.1333 48.48 31.4255 49.2738 31.3777 49.2929C31.3395 49.3121 30.5552 48.6904 29.637 47.8966C28.7189 47.1123 27.9633 46.4237 27.9633 46.3663C27.9633 46.3185 28.6424 45.4864 29.4745 44.53C30.3161 43.564 31.1577 42.6267 31.3682 42.445C31.569 42.2537 31.9324 41.9859 32.1715 41.852C32.4107 41.7181 32.841 41.5269 33.128 41.4312C33.4914 41.3069 33.9314 41.2495 34.5626 41.2495C35.0791 41.2591 35.6338 41.3069 35.8537 41.3834C36.0642 41.4599 39.9376 43.0093 44.4615 44.8361C48.9853 46.6628 53.2605 48.3843 55.2403 49.1877L55.6228 48.7574C55.8333 48.5182 56.5219 47.734 57.1435 47.0167C57.7748 46.2898 58.2817 45.6586 58.2817 45.6012C58.2817 45.5534 57.0766 44.4631 52.9353 40.8669L53.1935 40.5704Z" fill="black"/>
<path d="M20.3885 51.8944C23.2099 48.6235 25.0654 46.5576 25.1802 46.5385C25.2949 46.5193 25.4958 46.548 25.6488 46.5863C25.7923 46.6341 27.1312 47.7244 28.6328 49.0251C30.1248 50.3259 31.416 51.4927 31.4925 51.6266C31.569 51.7605 31.5977 51.9709 31.569 52.1048C31.5403 52.2387 29.4553 54.7349 26.9304 57.652C24.415 60.5691 22.177 63.0749 21.9762 63.2183C21.7753 63.3618 21.2875 63.6105 20.905 63.7731C20.3216 64.0122 20.092 64.06 19.4034 64.06C18.7339 64.06 18.4757 64.0122 17.9401 63.7922C17.5862 63.6487 17.0698 63.3618 16.7828 63.1514C16.4959 62.941 16.0942 62.5297 15.8934 62.2428C15.6925 61.9559 15.4343 61.4777 15.3291 61.1907C15.2143 60.9038 15.1091 60.3682 15.0804 59.9952C15.0422 59.5361 15.0804 59.1345 15.1856 58.7328C15.2717 58.398 15.4439 57.9294 15.5682 57.6807C15.6925 57.4225 17.8445 54.8497 20.3885 51.8944Z" fill="black"/>
</g>
<defs>
<linearGradient id="paint0_linear_9_661" x1="0.36084" y1="77.583" x2="82.2834" y2="11.7507" gradientUnits="userSpaceOnUse">
<stop stop-color="#EDEDED"/>
<stop offset="1" stop-color="#F9F9F9"/>
</linearGradient>
<linearGradient id="paint1_linear_9_661" x1="0.36084" y1="77.583" x2="82.2834" y2="11.7507" gradientUnits="userSpaceOnUse">
<stop stop-color="#EDEDED"/>
<stop offset="1" stop-color="#F9F9F9"/>
</linearGradient>
</defs>
</svg>
