<svg width="78" height="78" viewBox="0 0 78 78" fill="none" xmlns="http://www.w3.org/2000/svg">
<mask id="mask0_9_655" style="mask-type:alpha" maskUnits="userSpaceOnUse" x="0" y="0" width="78" height="78">
<rect x="0.605957" y="0.918457" width="76.6645" height="76.6645" fill="url(#paint0_linear_9_655)"/>
</mask>
<g mask="url(#mask0_9_655)">
<rect x="0.605957" y="0.918457" width="76.6645" height="76.6645" fill="url(#paint1_linear_9_655)"/>
<path d="M35.6223 15.7019C35.6887 15.5802 35.943 15.3148 36.1752 15.1158L36.6064 14.762H38.9839L38.9866 14.762C41.3392 14.773 41.3614 14.7731 41.7151 15.0384C41.9142 15.1932 42.1685 15.4475 42.268 15.6134C42.4449 15.8788 42.4781 16.3211 42.5223 19.1961C42.5776 22.3365 42.5887 22.5024 42.8098 22.8009C42.9425 22.9668 43.1858 23.2101 43.3406 23.3317C43.5618 23.4976 43.8161 23.5529 44.2916 23.5529C44.7671 23.5529 45.0214 23.4976 45.2425 23.3317C45.3973 23.2101 45.6406 22.9668 45.7733 22.8009C45.9834 22.5134 46.0055 22.3365 46.0276 20.3904C46.0498 19.2403 46.094 18.3004 46.1382 18.3004C46.1935 18.3004 46.6248 18.5327 47.1113 18.8202C47.5978 19.1187 48.3166 19.5942 48.7147 19.9038C49.1127 20.2024 49.8094 20.8216 50.2738 21.286C50.7272 21.7394 51.3796 22.4913 51.7224 22.9447C52.0541 23.3981 52.5628 24.1721 52.8503 24.6586C53.1267 25.1452 53.558 26.0409 53.7902 26.649C54.0334 27.2572 54.2878 28.0423 54.3762 28.3851C54.5089 28.9712 54.5421 29.0154 54.907 29.0928C55.1724 29.137 55.4709 29.3471 55.8469 29.7341C56.1897 30.0769 56.4551 30.475 56.5435 30.7404C56.6099 30.9837 56.6762 31.3596 56.6762 31.5697C56.6762 31.7798 56.6099 32.1558 56.5325 32.388C56.4661 32.6313 56.2008 33.0515 55.9464 33.3279C55.6516 33.667 55.3198 33.9029 54.9512 34.0356C54.4426 34.2125 53.4363 34.2236 38.9839 34.2236C27.3179 34.2236 23.4477 34.1904 23.116 34.0909C22.8506 34.0024 22.4525 33.737 22.1208 33.3942C21.778 33.0625 21.5126 32.6644 21.4242 32.3991C21.3578 32.1558 21.2915 31.7798 21.2915 31.5697C21.2915 31.3596 21.3578 30.9837 21.4242 30.7404C21.5126 30.475 21.778 30.0769 22.1208 29.7341C22.4968 29.3471 22.7953 29.137 23.0607 29.0928C23.4256 29.0154 23.4588 28.9712 23.5915 28.3851C23.6799 28.0423 23.9343 27.2572 24.1775 26.649C24.4098 26.0409 24.8631 25.0899 25.1838 24.5481C25.5155 23.9952 26.0242 23.2322 26.3227 22.8341C26.6213 22.436 27.2405 21.7394 27.705 21.286C28.1583 20.8327 28.855 20.2134 29.253 19.9038C29.6511 19.6053 30.3699 19.1187 30.8564 18.8202C31.343 18.5327 31.7742 18.3004 31.8295 18.3004C31.8737 18.3004 31.918 19.2403 31.9401 20.3904C31.9622 22.3365 31.9843 22.5134 32.1944 22.8009C32.3271 22.9668 32.5704 23.2101 32.7252 23.3317C32.9463 23.4976 33.2007 23.5529 33.6761 23.5529C34.1516 23.5529 34.406 23.4976 34.6271 23.3317C34.7819 23.2101 35.0252 22.9668 35.1579 22.8009C35.379 22.5024 35.3901 22.3365 35.4454 19.2072C35.4786 17.1062 35.5449 15.8456 35.6223 15.7019Z" fill="black"/>
<path d="M22.342 54.8352C22.7069 54.6693 23.3814 54.3929 23.8348 54.227C24.2881 54.0501 24.6973 53.9063 24.7415 53.9063C24.7968 53.9063 24.83 56.2395 24.83 64.2896H20.1857C16.4814 64.2896 15.4751 64.2674 15.2318 64.1458C15.066 64.0574 14.8006 63.8362 14.6237 63.6482C14.4578 63.4602 14.2919 63.1174 14.2588 62.8852C14.2145 62.653 14.2145 62.3213 14.2588 62.1333C14.2919 61.9564 14.6237 61.3814 14.9996 60.8617C15.3756 60.353 16.1386 59.4573 16.6915 58.8934C17.2443 58.3184 18.14 57.5112 18.6929 57.0799C19.2347 56.6597 20.1304 56.0405 20.6833 55.7198C21.2251 55.3991 21.9771 55.0011 22.342 54.8352Z" fill="black"/>
<path d="M39.006 58.9818C39.3377 58.9818 40.543 58.429 44.4796 56.4496C47.2661 55.0564 49.5551 53.9063 49.5661 53.9063C49.5882 53.9063 49.5993 56.2395 49.5993 64.2896H28.3684V59.3689C28.3684 55.4876 28.4016 54.4592 28.5011 54.5035C28.5785 54.5256 30.8785 55.5429 33.6209 56.7592C37.1704 58.3516 38.7185 58.9818 39.006 58.9818Z" fill="black"/>
<path d="M53.1378 64.2896L53.1488 59.0924L53.1599 53.8842L53.3921 53.9616C53.5248 53.9948 54.133 54.227 54.7411 54.4703C55.3493 54.7136 56.245 55.1227 56.7315 55.3881C57.2181 55.6535 58.0584 56.1842 58.6113 56.5713C59.1532 56.9583 60.1373 57.7987 60.8008 58.429C61.4642 59.0703 62.382 60.0876 62.8354 60.6958C63.2777 61.304 63.6758 61.9564 63.709 62.1333C63.7532 62.3213 63.7421 62.653 63.709 62.8852C63.6758 63.1174 63.5099 63.4602 63.333 63.6482C63.1671 63.8362 62.9017 64.0574 62.7248 64.1458C62.4815 64.2674 61.4863 64.2896 53.1378 64.2896Z" fill="black"/>
<path d="M26.7098 41.1347C26.6545 40.7034 26.5992 39.7746 26.5992 39.0558V37.7621H51.3685V39.0558C51.3685 39.7746 51.3132 40.7034 51.2469 41.1347C51.1916 41.5549 51.0368 42.3068 50.9152 42.7933C50.7935 43.2799 50.3954 44.2751 50.0416 45.0049C49.6103 45.8674 49.1127 46.6525 47.8411 48.2116L47.83 50.8102L38.9286 55.2554L30.193 51.3741L30.1156 48.2116L29.3526 47.2717C28.855 46.6635 28.3574 45.8563 27.9261 45.0049C27.5612 44.2751 27.1631 43.2799 27.0415 42.7933C26.9199 42.3068 26.7761 41.5549 26.7098 41.1347Z" fill="black"/>
</g>
<defs>
<linearGradient id="paint0_linear_9_655" x1="0.605958" y1="77.583" x2="82.5285" y2="11.7507" gradientUnits="userSpaceOnUse">
<stop stop-color="#EDEDED"/>
<stop offset="1" stop-color="#F9F9F9"/>
</linearGradient>
<linearGradient id="paint1_linear_9_655" x1="0.605958" y1="77.583" x2="82.5285" y2="11.7507" gradientUnits="userSpaceOnUse">
<stop stop-color="#EDEDED"/>
<stop offset="1" stop-color="#F9F9F9"/>
</linearGradient>
</defs>
</svg>
