<svg width="78" height="77" viewBox="0 0 78 77" fill="none" xmlns="http://www.w3.org/2000/svg">
<mask id="mask0_9_643" style="mask-type:alpha" maskUnits="userSpaceOnUse" x="0" y="0" width="78" height="77">
<rect x="0.605957" y="0.253906" width="76.6645" height="76.6645" fill="url(#paint0_linear_9_643)"/>
</mask>
<g mask="url(#mask0_9_643)">
<rect x="0.605957" y="0.253906" width="76.6645" height="76.6645" fill="url(#paint1_linear_9_643)"/>
<path fill-rule="evenodd" clip-rule="evenodd" d="M51.1276 13.8374L63.7383 26.4481L26.8724 63.314L14.2617 50.7032L23.8285 41.1365L26.1187 43.4267C28.2253 45.5333 28.4476 45.7266 28.7568 45.7266C28.9501 45.7266 29.211 45.6493 29.3656 45.5333C29.5202 45.4174 29.6555 45.2144 29.6845 45.0212C29.7231 44.8376 29.6845 44.596 29.5975 44.422C29.5202 44.2674 28.4766 43.1755 25.0751 39.8802L28.5152 36.4497L31.8974 39.8319C33.9171 41.8516 35.3956 43.2431 35.5695 43.3107C35.7724 43.3784 35.956 43.3881 36.1686 43.3107C36.3426 43.2624 36.5552 43.1175 36.6325 42.9919C36.7098 42.8759 36.7774 42.6246 36.7774 42.441C36.7774 42.1221 36.5358 41.8612 29.8198 35.1452L33.2503 31.705L35.5212 34.0339C37.6954 36.2565 37.8114 36.3531 38.1496 36.3531C38.4009 36.3531 38.6135 36.2758 38.8067 36.1115C39.0483 35.9086 39.0966 35.8023 39.0966 35.4544C39.0966 35.0485 39.0676 35.0292 34.5065 30.4584L37.937 27.0279L41.2902 30.4391C43.4645 32.652 44.7594 33.8889 44.943 33.9469C45.1073 33.9952 45.3585 34.0049 45.5131 33.9662C45.6677 33.9276 45.8803 33.7826 45.977 33.6474C46.0736 33.5121 46.1606 33.2898 46.1509 33.1449C46.1509 32.9902 46.0929 32.7583 46.0156 32.6134C45.9383 32.4588 44.3728 30.8643 39.1739 25.7717L42.6238 22.3412L44.9237 24.6314C47.1656 26.883 47.2235 26.9313 47.6101 26.9313C47.9193 26.9313 48.0546 26.8733 48.2382 26.6607C48.4025 26.4771 48.4701 26.2838 48.4701 26.0133C48.4701 25.6364 48.4121 25.5688 43.88 21.0946L47.2622 17.6834L50.7603 21.1236C54.1039 24.3995 54.2875 24.5638 54.6257 24.5638C54.8866 24.5734 55.0702 24.4961 55.2538 24.3222C55.4664 24.1386 55.5244 23.9936 55.5244 23.6941C55.5244 23.3172 55.4568 23.2399 48.6151 16.3402L51.1276 13.8374ZM23.1714 49.7176C22.9491 49.8625 22.6012 50.1911 22.3983 50.4423C22.1954 50.6936 21.9441 51.1381 21.8475 51.428C21.7186 51.7888 21.6574 52.2075 21.6639 52.6842C21.6639 53.2834 21.7219 53.5249 21.9634 54.0371C22.1181 54.385 22.4466 54.8585 22.6785 55.0904C22.9105 55.3223 23.297 55.6122 23.5386 55.7379C23.7802 55.8538 24.2343 55.9988 24.5532 56.0568C24.9204 56.1244 25.3263 56.1341 25.6645 56.0858C25.9544 56.0374 26.4279 55.8828 26.7082 55.7475C26.9787 55.6026 27.4136 55.2837 27.6552 55.0324C27.9064 54.7812 28.177 54.4236 28.2736 54.2304C28.3703 54.0468 28.4959 53.6602 28.5635 53.3607C28.6312 53.0708 28.6698 52.5973 28.6408 52.2977C28.6119 52.0078 28.4766 51.5246 28.3413 51.2154C28.1963 50.9062 27.8871 50.452 27.6552 50.2007C27.3943 49.9108 27.0077 49.6306 26.6212 49.4567C26.1477 49.2344 25.8385 49.1571 25.278 49.1378C24.7658 49.1184 24.4083 49.1571 24.0701 49.2827C23.7995 49.3794 23.3936 49.5726 23.1714 49.7176ZM25.3263 51.0125C25.4906 51.0415 25.7322 51.1284 25.8868 51.2057C26.0317 51.2734 26.2637 51.4956 26.4183 51.6889C26.6115 51.9595 26.6888 52.1817 26.7082 52.5876C26.7275 53.0128 26.6888 53.2061 26.5149 53.5056C26.3893 53.7182 26.109 53.9985 25.9061 54.1144C25.6838 54.24 25.3553 54.327 25.133 54.327C24.9108 54.327 24.5822 54.24 24.3696 54.1144C24.128 53.9791 23.9058 53.7375 23.7608 53.4573C23.6352 53.2254 23.5386 52.8775 23.5386 52.6842C23.5386 52.5006 23.6255 52.1721 23.7222 51.9595C23.8188 51.7469 23.9831 51.5053 24.0797 51.4087C24.186 51.312 24.4373 51.1767 24.6499 51.0994C24.8625 51.0221 25.162 50.9835 25.3263 51.0125Z" fill="black"/>
</g>
<defs>
<linearGradient id="paint0_linear_9_643" x1="0.605958" y1="76.9184" x2="82.5285" y2="11.0862" gradientUnits="userSpaceOnUse">
<stop stop-color="#EDEDED"/>
<stop offset="1" stop-color="#F9F9F9"/>
</linearGradient>
<linearGradient id="paint1_linear_9_643" x1="0.605958" y1="76.9184" x2="82.5285" y2="11.0862" gradientUnits="userSpaceOnUse">
<stop stop-color="#EDEDED"/>
<stop offset="1" stop-color="#F9F9F9"/>
</linearGradient>
</defs>
</svg>
