<svg width="30" height="30" viewBox="0 0 30 30" fill="none" xmlns="http://www.w3.org/2000/svg">
<path d="M16.7605 0.349609C18.3942 0.353966 19.2234 0.362679 19.9394 0.38301L20.2211 0.393176C20.5464 0.404793 20.8673 0.419315 21.2551 0.436742C22.8002 0.509353 23.8545 0.753325 24.7796 1.11202C25.738 1.48088 26.5455 1.98044 27.3529 2.78642C28.0913 3.51238 28.6627 4.39052 29.0273 5.35974C29.386 6.2848 29.63 7.33911 29.7026 8.88571C29.72 9.272 29.7345 9.59294 29.7461 9.91969L29.7549 10.2014C29.7766 10.9159 29.7854 11.7451 29.7883 13.3789L29.7897 14.4622V16.3646C29.7933 17.4239 29.7821 18.4831 29.7563 19.542L29.7476 19.8238C29.736 20.1505 29.7215 20.4715 29.704 20.8577C29.6314 22.4044 29.3845 23.4572 29.0273 24.3837C28.6638 25.3535 28.0923 26.2318 27.3529 26.957C26.6267 27.6952 25.7487 28.2666 24.7796 28.6314C23.8545 28.9901 22.8002 29.2341 21.2551 29.3067C20.9105 29.3229 20.5658 29.3375 20.2211 29.3503L19.9394 29.359C19.2234 29.3793 18.3942 29.3895 16.7605 29.3924L15.6771 29.3939H13.7762C12.7164 29.3975 11.6567 29.3864 10.5973 29.3605L10.3155 29.3517C9.9708 29.3387 9.62614 29.3237 9.28157 29.3067C7.73642 29.2341 6.68211 28.9901 5.7556 28.6314C4.78649 28.2675 3.9087 27.696 3.18373 26.957C2.44462 26.2313 1.87271 25.3532 1.50788 24.3837C1.14918 23.4587 0.90521 22.4044 0.832599 20.8577C0.81642 20.5132 0.801898 20.1685 0.789033 19.8238L0.781772 19.542C0.755011 18.4831 0.742908 17.4239 0.745467 16.3646V13.3789C0.741414 12.3196 0.752064 11.2604 0.777416 10.2014L0.787581 9.91969C0.799199 9.59294 0.813721 9.272 0.831147 8.88571C0.903758 7.33911 1.14773 6.28625 1.50643 5.35974C1.8711 4.38952 2.44415 3.51111 3.18518 2.78642C3.90997 2.04793 4.78718 1.47651 5.7556 1.11202C6.68211 0.753325 7.73496 0.509353 9.28157 0.436742C9.66786 0.419315 9.99025 0.404793 10.3155 0.393176L10.5973 0.384462C11.6562 0.358661 12.7155 0.347526 13.7747 0.351061L16.7605 0.349609ZM15.2676 7.61067C13.3418 7.61067 11.495 8.37567 10.1332 9.73739C8.77153 11.0991 8.00653 12.946 8.00653 14.8717C8.00653 16.7975 8.77153 18.6444 10.1332 20.0061C11.495 21.3678 13.3418 22.1328 15.2676 22.1328C17.1933 22.1328 19.0402 21.3678 20.4019 20.0061C21.7636 18.6444 22.5286 16.7975 22.5286 14.8717C22.5286 12.946 21.7636 11.0991 20.4019 9.73739C19.0402 8.37567 17.1933 7.61067 15.2676 7.61067ZM15.2676 10.5151C15.8397 10.515 16.4062 10.6276 16.9349 10.8464C17.4635 11.0653 17.9438 11.3861 18.3484 11.7906C18.753 12.1951 19.074 12.6753 19.293 13.2038C19.5121 13.7324 19.6249 14.2989 19.6249 14.871C19.625 15.4431 19.5125 16.0097 19.2936 16.5383C19.0747 17.0669 18.7539 17.5472 18.3494 17.9518C17.945 18.3564 17.4647 18.6774 16.9362 18.8965C16.4077 19.1155 15.8412 19.2283 15.269 19.2284C14.1136 19.2284 13.0055 18.7694 12.1884 17.9523C11.3714 17.1353 10.9124 16.0272 10.9124 14.8717C10.9124 13.7163 11.3714 12.6082 12.1884 11.7911C13.0055 10.9741 14.1136 10.5151 15.269 10.5151M22.8932 5.43235C22.4117 5.43235 21.95 5.6236 21.6096 5.96403C21.2691 6.30446 21.0779 6.76618 21.0779 7.24762C21.0779 7.72906 21.2691 8.19078 21.6096 8.5312C21.95 8.87163 22.4117 9.06288 22.8932 9.06288C23.3746 9.06288 23.8363 8.87163 24.1767 8.5312C24.5172 8.19078 24.7084 7.72906 24.7084 7.24762C24.7084 6.76618 24.5172 6.30446 24.1767 5.96403C23.8363 5.6236 23.3746 5.43235 22.8932 5.43235Z" fill="url(#paint0_linear_14_328)"/>
<defs>
<linearGradient id="paint0_linear_14_328" x1="15.2675" y1="0.349609" x2="0.744629" y2="26.0094" gradientUnits="userSpaceOnUse">
<stop stop-color="#8E3FBE"/>
<stop offset="0.505" stop-color="#F5006C"/>
<stop offset="1" stop-color="#FFBD4C"/>
</linearGradient>
</defs>
</svg>
