<svg width="243" height="58" viewBox="0 0 243 58" fill="none" xmlns="http://www.w3.org/2000/svg">
<path d="M74.9262 48.1493V54.9873H74.0812V49.5793L71.3122 54.1553H70.8962L68.1272 49.5663V54.9873H67.2822V48.1493H68.2182L71.1172 53.0763L74.0682 48.1493H74.9262ZM83.5327 51.8543H77.8127C77.8647 52.565 78.1377 53.1413 78.6317 53.5833C79.1257 54.0166 79.7497 54.2333 80.5037 54.2333C80.9284 54.2333 81.3184 54.1596 81.6737 54.0123C82.0291 53.8563 82.3367 53.631 82.5967 53.3363L83.1167 53.9343C82.8134 54.2983 82.4321 54.5756 81.9727 54.7663C81.5221 54.957 81.0237 55.0523 80.4777 55.0523C79.7757 55.0523 79.1517 54.905 78.6057 54.6103C78.0684 54.307 77.6481 53.891 77.3447 53.3623C77.0414 52.8336 76.8897 52.2356 76.8897 51.5683C76.8897 50.901 77.0327 50.303 77.3187 49.7743C77.6134 49.2456 78.0121 48.834 78.5147 48.5393C79.0261 48.2446 79.5981 48.0973 80.2307 48.0973C80.8634 48.0973 81.4311 48.2446 81.9337 48.5393C82.4364 48.834 82.8307 49.2456 83.1167 49.7743C83.4027 50.2943 83.5457 50.8923 83.5457 51.5683L83.5327 51.8543ZM80.2307 48.8903C79.5721 48.8903 79.0174 49.1026 78.5667 49.5273C78.1247 49.9433 77.8734 50.4893 77.8127 51.1653H82.6617C82.6011 50.4893 82.3454 49.9433 81.8947 49.5273C81.4527 49.1026 80.8981 48.8903 80.2307 48.8903ZM88.9039 48.3183C89.5365 48.3183 90.0999 48.4613 90.5939 48.7473C91.0965 49.0246 91.4865 49.419 91.7639 49.9303C92.0412 50.433 92.1799 51.0093 92.1799 51.6593C92.1799 52.3266 92.0325 52.9203 91.7379 53.4403C91.4519 53.9516 91.0489 54.3503 90.5289 54.6363C90.0089 54.9223 89.4109 55.0653 88.7349 55.0653C87.5995 55.0653 86.7199 54.6666 86.0959 53.8693C85.4719 53.072 85.1599 51.9713 85.1599 50.5673C85.1599 49.1026 85.4372 47.9803 85.9919 47.2003C86.5552 46.4203 87.4305 45.8916 88.6179 45.6143L91.6859 44.9123L91.8419 45.7573L88.9559 46.4203C87.9765 46.637 87.2572 47.0226 86.7979 47.5773C86.3385 48.1233 86.0872 48.9336 86.0439 50.0083C86.3212 49.4796 86.7069 49.068 87.2009 48.7733C87.6949 48.47 88.2625 48.3183 88.9039 48.3183ZM88.7609 54.2983C89.2375 54.2983 89.6622 54.19 90.0349 53.9733C90.4162 53.748 90.7109 53.436 90.9189 53.0373C91.1355 52.6386 91.2439 52.188 91.2439 51.6853C91.2439 51.1826 91.1399 50.7406 90.9319 50.3593C90.7239 49.978 90.4292 49.6833 90.0479 49.4753C89.6752 49.2586 89.2462 49.1503 88.7609 49.1503C88.2755 49.1503 87.8422 49.2586 87.4609 49.4753C87.0882 49.6833 86.7935 49.978 86.5769 50.3593C86.3689 50.7406 86.2649 51.1826 86.2649 51.6853C86.2649 52.188 86.3689 52.6386 86.5769 53.0373C86.7935 53.436 87.0925 53.748 87.4739 53.9733C87.8552 54.19 88.2842 54.2983 88.7609 54.2983ZM100.138 51.8543H94.4182C94.4702 52.565 94.7432 53.1413 95.2372 53.5833C95.7312 54.0166 96.3552 54.2333 97.1092 54.2333C97.5339 54.2333 97.9239 54.1596 98.2792 54.0123C98.6345 53.8563 98.9422 53.631 99.2022 53.3363L99.7222 53.9343C99.4189 54.2983 99.0375 54.5756 98.5782 54.7663C98.1275 54.957 97.6292 55.0523 97.0832 55.0523C96.3812 55.0523 95.7572 54.905 95.2112 54.6103C94.6739 54.307 94.2535 53.891 93.9502 53.3623C93.6469 52.8336 93.4952 52.2356 93.4952 51.5683C93.4952 50.901 93.6382 50.303 93.9242 49.7743C94.2189 49.2456 94.6175 48.834 95.1202 48.5393C95.6315 48.2446 96.2035 48.0973 96.8362 48.0973C97.4689 48.0973 98.0365 48.2446 98.5392 48.5393C99.0419 48.834 99.4362 49.2456 99.7222 49.7743C100.008 50.2943 100.151 50.8923 100.151 51.5683L100.138 51.8543ZM96.8362 48.8903C96.1775 48.8903 95.6229 49.1026 95.1722 49.5273C94.7302 49.9433 94.4789 50.4893 94.4182 51.1653H99.2672C99.2065 50.4893 98.9509 49.9433 98.5002 49.5273C98.0582 49.1026 97.5035 48.8903 96.8362 48.8903ZM107.645 48.1493V54.9873H106.722V48.9683H103.446L103.355 50.6583C103.285 52.0796 103.121 53.1716 102.861 53.9343C102.601 54.697 102.137 55.0783 101.47 55.0783C101.288 55.0783 101.067 55.0436 100.807 54.9743L100.872 54.1813C101.028 54.216 101.136 54.2333 101.197 54.2333C101.552 54.2333 101.821 54.0686 102.003 53.7393C102.185 53.41 102.306 53.0026 102.367 52.5173C102.427 52.032 102.479 51.3906 102.523 50.5933L102.64 48.1493H107.645ZM113.207 50.5673C114.065 50.576 114.715 50.7666 115.157 51.1393C115.607 51.512 115.833 52.0493 115.833 52.7513C115.833 53.4793 115.59 54.0383 115.105 54.4283C114.628 54.8183 113.935 55.009 113.025 55.0003L110.269 54.9873V48.1493H111.192V50.5413L113.207 50.5673ZM112.973 54.2983C113.605 54.307 114.082 54.1813 114.403 53.9213C114.732 53.6526 114.897 53.2626 114.897 52.7513C114.897 52.2486 114.736 51.876 114.416 51.6333C114.095 51.3906 113.614 51.265 112.973 51.2563L111.192 51.2303V54.2723L112.973 54.2983ZM120.996 48.1493H121.919V51.1783H126.222V48.1493H127.145V54.9873H126.222V51.9713H121.919V54.9873H120.996V48.1493ZM132.122 48.0973C133.014 48.0973 133.699 48.3226 134.176 48.7733C134.652 49.2153 134.891 49.874 134.891 50.7493V54.9873H134.007V53.9213C133.799 54.2766 133.491 54.554 133.084 54.7533C132.685 54.9526 132.208 55.0523 131.654 55.0523C130.891 55.0523 130.284 54.8703 129.834 54.5063C129.383 54.1423 129.158 53.6613 129.158 53.0633C129.158 52.4826 129.366 52.0146 129.782 51.6593C130.206 51.304 130.878 51.1263 131.797 51.1263H133.968V50.7103C133.968 50.121 133.803 49.6746 133.474 49.3713C133.144 49.0593 132.663 48.9033 132.031 48.9033C131.597 48.9033 131.181 48.977 130.783 49.1243C130.384 49.263 130.042 49.458 129.756 49.7093L129.34 49.0203C129.686 48.7256 130.102 48.5003 130.588 48.3443C131.073 48.1796 131.584 48.0973 132.122 48.0973ZM131.797 54.3243C132.317 54.3243 132.763 54.2073 133.136 53.9733C133.508 53.7306 133.786 53.384 133.968 52.9333V51.8153H131.823C130.653 51.8153 130.068 52.2226 130.068 53.0373C130.068 53.436 130.219 53.7523 130.523 53.9863C130.826 54.2116 131.251 54.3243 131.797 54.3243ZM144.078 51.4253C144.563 51.538 144.936 51.733 145.196 52.0103C145.465 52.2876 145.599 52.6256 145.599 53.0243C145.599 53.423 145.46 53.7783 145.183 54.0903C144.914 54.4023 144.546 54.645 144.078 54.8183C143.61 54.983 143.094 55.0653 142.531 55.0653C142.037 55.0653 141.552 54.996 141.075 54.8573C140.598 54.71 140.182 54.4976 139.827 54.2203L140.139 53.5313C140.451 53.7653 140.815 53.9473 141.231 54.0773C141.647 54.2073 142.067 54.2723 142.492 54.2723C143.125 54.2723 143.64 54.1553 144.039 53.9213C144.446 53.6786 144.65 53.3536 144.65 52.9463C144.65 52.5823 144.485 52.3006 144.156 52.1013C143.827 51.8933 143.376 51.7893 142.804 51.7893H141.634V51.1133H142.752C143.263 51.1133 143.675 51.018 143.987 50.8273C144.299 50.628 144.455 50.3636 144.455 50.0343C144.455 49.6703 144.277 49.3843 143.922 49.1763C143.575 48.9683 143.12 48.8643 142.557 48.8643C141.82 48.8643 141.092 49.0506 140.373 49.4233L140.113 48.7083C140.928 48.2836 141.773 48.0713 142.648 48.0713C143.168 48.0713 143.636 48.1493 144.052 48.3053C144.477 48.4526 144.806 48.665 145.04 48.9423C145.283 49.2196 145.404 49.5403 145.404 49.9043C145.404 50.251 145.283 50.5586 145.04 50.8273C144.806 51.096 144.485 51.2953 144.078 51.4253ZM150.047 48.0973C150.94 48.0973 151.625 48.3226 152.101 48.7733C152.578 49.2153 152.816 49.874 152.816 50.7493V54.9873H151.932V53.9213C151.724 54.2766 151.417 54.554 151.009 54.7533C150.611 54.9526 150.134 55.0523 149.579 55.0523C148.817 55.0523 148.21 54.8703 147.759 54.5063C147.309 54.1423 147.083 53.6613 147.083 53.0633C147.083 52.4826 147.291 52.0146 147.707 51.6593C148.132 51.304 148.804 51.1263 149.722 51.1263H151.893V50.7103C151.893 50.121 151.729 49.6746 151.399 49.3713C151.07 49.0593 150.589 48.9033 149.956 48.9033C149.523 48.9033 149.107 48.977 148.708 49.1243C148.31 49.263 147.967 49.458 147.681 49.7093L147.265 49.0203C147.612 48.7256 148.028 48.5003 148.513 48.3443C148.999 48.1796 149.51 48.0973 150.047 48.0973ZM149.722 54.3243C150.242 54.3243 150.689 54.2073 151.061 53.9733C151.434 53.7306 151.711 53.384 151.893 52.9333V51.8153H149.748C148.578 51.8153 147.993 52.2226 147.993 53.0373C147.993 53.436 148.145 53.7523 148.448 53.9863C148.752 54.2116 149.176 54.3243 149.722 54.3243ZM157.756 51.9453H156.196V54.9873H155.273V48.1493H156.196V51.1523H157.769L160.174 48.1493H161.175L158.484 51.4643L161.37 54.9873H160.278L157.756 51.9453ZM165.053 48.0973C165.946 48.0973 166.631 48.3226 167.107 48.7733C167.584 49.2153 167.822 49.874 167.822 50.7493V54.9873H166.938V53.9213C166.73 54.2766 166.423 54.554 166.015 54.7533C165.617 54.9526 165.14 55.0523 164.585 55.0523C163.823 55.0523 163.216 54.8703 162.765 54.5063C162.315 54.1423 162.089 53.6613 162.089 53.0633C162.089 52.4826 162.297 52.0146 162.713 51.6593C163.138 51.304 163.81 51.1263 164.728 51.1263H166.899V50.7103C166.899 50.121 166.735 49.6746 166.405 49.3713C166.076 49.0593 165.595 48.9033 164.962 48.9033C164.529 48.9033 164.113 48.977 163.714 49.1243C163.316 49.263 162.973 49.458 162.687 49.7093L162.271 49.0203C162.618 48.7256 163.034 48.5003 163.519 48.3443C164.005 48.1796 164.516 48.0973 165.053 48.0973ZM164.728 54.3243C165.248 54.3243 165.695 54.2073 166.067 53.9733C166.44 53.7306 166.717 53.384 166.899 52.9333V51.8153H164.754C163.584 51.8153 162.999 52.2226 162.999 53.0373C162.999 53.436 163.151 53.7523 163.454 53.9863C163.758 54.2116 164.182 54.3243 164.728 54.3243ZM173.468 51.4253C173.953 51.538 174.326 51.733 174.586 52.0103C174.854 52.2876 174.989 52.6256 174.989 53.0243C174.989 53.423 174.85 53.7783 174.573 54.0903C174.304 54.4023 173.936 54.645 173.468 54.8183C173 54.983 172.484 55.0653 171.921 55.0653C171.427 55.0653 170.941 54.996 170.465 54.8573C169.988 54.71 169.572 54.4976 169.217 54.2203L169.529 53.5313C169.841 53.7653 170.205 53.9473 170.621 54.0773C171.037 54.2073 171.457 54.2723 171.882 54.2723C172.514 54.2723 173.03 54.1553 173.429 53.9213C173.836 53.6786 174.04 53.3536 174.04 52.9463C174.04 52.5823 173.875 52.3006 173.546 52.1013C173.216 51.8933 172.766 51.7893 172.194 51.7893H171.024V51.1133H172.142C172.653 51.1133 173.065 51.018 173.377 50.8273C173.689 50.628 173.845 50.3636 173.845 50.0343C173.845 49.6703 173.667 49.3843 173.312 49.1763C172.965 48.9683 172.51 48.8643 171.947 48.8643C171.21 48.8643 170.482 49.0506 169.763 49.4233L169.503 48.7083C170.317 48.2836 171.162 48.0713 172.038 48.0713C172.558 48.0713 173.026 48.1493 173.442 48.3053C173.866 48.4526 174.196 48.665 174.43 48.9423C174.672 49.2196 174.794 49.5403 174.794 49.9043C174.794 50.251 174.672 50.5586 174.43 50.8273C174.196 51.096 173.875 51.2953 173.468 51.4253Z" fill="#323232"/>
<path d="M35.0194 18.9727V33.5996H31.6552V21.7309H25.0522V33.5996H21.688V18.9727H35.0194ZM44.9767 18.9727C46.2722 18.9727 47.3936 19.1886 48.3409 19.6204C49.3021 20.0523 50.0404 20.6652 50.5558 21.4593C51.0713 22.2533 51.329 23.1936 51.329 24.2802C51.329 25.3528 51.0713 26.2931 50.5558 27.1011C50.0404 27.8951 49.3021 28.508 48.3409 28.9399C47.3936 29.3578 46.2722 29.5668 44.9767 29.5668H42.0304V33.5996H38.6453V18.9727H44.9767ZM44.7886 26.8085C45.8056 26.8085 46.5787 26.5926 47.1081 26.1608C47.6374 25.715 47.9021 25.0881 47.9021 24.2802C47.9021 23.4583 47.6374 22.8314 47.1081 22.3996C46.5787 21.9538 45.8056 21.7309 44.7886 21.7309H42.0304V26.8085H44.7886ZM64.8875 30.8832V33.5996H53.562V18.9727H64.6158V21.6891H56.9262V24.8652H63.7173V27.4981H56.9262V30.8832H64.8875ZM80.9322 33.5996L80.9113 24.8443L76.6068 32.0533H75.1023L70.7978 25.0115V33.5996H67.6217V18.9727H70.4217L75.8963 28.0623L81.2874 18.9727H84.0874L84.1083 33.5996H80.9322ZM94.8255 23.7787C96.6086 23.7787 97.9738 24.1757 98.921 24.9697C99.8822 25.7638 100.363 26.9409 100.363 28.5011C100.363 30.1588 99.8335 31.4265 98.7748 32.3041C97.73 33.1678 96.2534 33.5996 94.3449 33.5996H87.7419V18.9727H91.1061V23.7787H94.8255ZM94.1568 31.0921C95.0345 31.0921 95.717 30.8762 96.2046 30.4444C96.7061 30.0125 96.9568 29.3857 96.9568 28.5638C96.9568 27.0453 96.0235 26.2861 94.1568 26.2861H91.1061V31.0921H94.1568ZM114.127 30.8832V33.5996H102.801V18.9727H113.855V21.6891H106.166V24.8652H112.957V27.4981H106.166V30.8832H114.127ZM123.192 18.9727C124.488 18.9727 125.609 19.1886 126.557 19.6204C127.518 20.0523 128.256 20.6652 128.772 21.4593C129.287 22.2533 129.545 23.1936 129.545 24.2802C129.545 25.3528 129.287 26.2931 128.772 27.1011C128.256 27.8951 127.518 28.508 126.557 28.9399C125.609 29.3578 124.488 29.5668 123.192 29.5668H120.246V33.5996H116.861V18.9727H123.192ZM123.004 26.8085C124.021 26.8085 124.794 26.5926 125.324 26.1608C125.853 25.715 126.118 25.0881 126.118 24.2802C126.118 23.4583 125.853 22.8314 125.324 22.3996C124.794 21.9538 124.021 21.7309 123.004 21.7309H120.246V26.8085H123.004ZM155.222 26.2443C155.222 28.1807 154.56 29.7061 153.237 30.8205C151.927 31.921 150.04 32.5339 147.574 32.6593V34.2474H144.461V32.6384C141.981 32.4991 140.08 31.8792 138.756 30.7787C137.447 29.6643 136.792 28.1528 136.792 26.2443C136.792 24.322 137.447 22.8175 138.756 21.7309C140.08 20.6304 141.981 20.0035 144.461 19.8503V18.3458H147.574V19.8294C150.04 19.9687 151.927 20.5956 153.237 21.71C154.56 22.8244 155.222 24.3359 155.222 26.2443ZM147.574 30.0056C149.051 29.8663 150.151 29.4901 150.876 28.8772C151.6 28.2503 151.962 27.3657 151.962 26.2235C151.962 23.9946 150.5 22.7548 147.574 22.504V30.0056ZM140.073 26.2443C140.073 28.4454 141.535 29.6991 144.461 30.0056V22.504C142.97 22.6433 141.863 23.0195 141.138 23.6324C140.428 24.2314 140.073 25.1021 140.073 26.2443ZM167.455 30.4653H160.664L159.368 33.5996H155.9L162.419 18.9727H165.762L172.303 33.5996H168.75L167.455 30.4653ZM166.389 27.8951L164.07 22.2951L161.75 27.8951H166.389ZM180.955 33.8504C179.464 33.8504 178.113 33.53 176.901 32.8892C175.703 32.2344 174.756 31.3359 174.059 30.1936C173.377 29.0374 173.035 27.7349 173.035 26.2861C173.035 24.8374 173.377 23.5418 174.059 22.3996C174.756 21.2433 175.703 20.3448 176.901 19.704C178.113 19.0493 179.471 18.7219 180.976 18.7219C182.243 18.7219 183.386 18.9448 184.403 19.3906C185.433 19.8364 186.297 20.4772 186.994 21.313L184.821 23.319C183.831 22.1767 182.606 21.6055 181.143 21.6055C180.237 21.6055 179.429 21.8075 178.719 22.2115C178.009 22.6015 177.451 23.1518 177.047 23.8622C176.657 24.5727 176.462 25.3807 176.462 26.2861C176.462 27.1916 176.657 27.9996 177.047 28.71C177.451 29.4205 178.009 29.9777 178.719 30.3817C179.429 30.7717 180.237 30.9668 181.143 30.9668C182.606 30.9668 183.831 30.3886 184.821 29.2324L186.994 31.2384C186.297 32.0882 185.433 32.7359 184.403 33.1817C183.372 33.6275 182.222 33.8504 180.955 33.8504ZM198.819 30.4653H192.028L190.732 33.5996H187.263L193.783 18.9727H197.126L203.667 33.5996H200.114L198.819 30.4653ZM197.753 27.8951L195.434 22.2951L193.114 27.8951H197.753ZM220.815 30.8414V36.6295H217.681V33.5996H207.359V36.6295H204.224L204.245 30.8414H204.83C205.708 30.8135 206.328 30.1727 206.69 28.919C207.052 27.6653 207.275 25.8752 207.359 23.5488L207.526 18.9727H218.768V30.8414H220.815ZM210.347 23.8622C210.277 25.6036 210.131 27.0662 209.908 28.2503C209.685 29.4205 209.344 30.2842 208.884 30.8414H215.424V21.7309H210.409L210.347 23.8622Z" fill="#323232"/>
<line x1="56.8818" y1="52.4263" x2="0.605926" y2="52.4263" stroke="#323232" stroke-width="4"/>
<line x1="242.606" y1="2.9873" x2="0.605988" y2="2.9873" stroke="#323232" stroke-width="4"/>
<line y1="-2" x2="56.2759" y2="-2" transform="matrix(1 -8.74228e-08 -8.74228e-08 -1 186.33 50.4263)" stroke="#323232" stroke-width="4"/>
<line x1="2.60596" y1="0.987305" x2="2.60596" y2="53.9062" stroke="#323232" stroke-width="4"/>
<line y1="-2" x2="52.9189" y2="-2" transform="matrix(-4.37114e-08 1 1 4.37114e-08 242.606 0.987305)" stroke="#323232" stroke-width="4"/>
</svg>
